/* XPM */
static char *result[] = {
/* columns rows colors chars-per-pixel */
"64 64 110 2 ",
"   c #1D1D1E",
".  c #201F1E",
"X  c #1E211E",
"o  c #24221F",
"O  c #29261F",
"+  c #1E2320",
"@  c #1E2C20",
"#  c #1F3221",
"$  c #1F3C23",
"%  c #212620",
"&  c #292620",
"*  c #222B21",
"=  c #2D2920",
"-  c #322C22",
";  c #233322",
":  c #2D3222",
">  c #233D24",
",  c #283F27",
"<  c #353121",
"1  c #3C3322",
"2  c #343A24",
"3  c #3B3A26",
"4  c #3A3429",
"5  c #3F382B",
"6  c #413623",
"7  c #453A23",
"8  c #4C3E24",
"9  c #443B29",
"0  c #4B3F28",
"q  c #1F4324",
"w  c #1F472B",
"e  c #1F4B2E",
"r  c #1F522F",
"t  c #1F5531",
"y  c #214424",
"u  c #2A4127",
"i  c #204925",
"p  c #204728",
"a  c #294728",
"s  c #214D2A",
"d  c #2A4C29",
"f  c #235027",
"g  c #21532D",
"h  c #2A542A",
"j  c #275929",
"k  c #2B5B2C",
"l  c #205631",
"z  c #235B32",
"x  c #285D31",
"c  c #2D622D",
"v  c #2F6B2F",
"b  c #31632F",
"n  c #276433",
"m  c #296432",
"M  c #2D6D34",
"N  c #336731",
"B  c #336831",
"V  c #2F7134",
"C  c #357634",
"Z  c #357B35",
"A  c #397F36",
"S  c #4E4024",
"D  c #434429",
"F  c #4E4129",
"G  c #524326",
"H  c #584827",
"J  c #534529",
"K  c #584728",
"L  c #56482B",
"P  c #5C4B2B",
"I  c #4C4330",
"U  c #524631",
"Y  c #544831",
"T  c #5C4F35",
"R  c #5D5037",
"E  c #614F2C",
"W  c #65522D",
"Q  c #6A552E",
"!  c #6E582F",
"~  c #645331",
"^  c #695633",
"/  c #6E5A33",
"(  c #64553A",
")  c #6E5C3A",
"_  c #745D31",
"`  c #725E3A",
"'  c #776035",
"]  c #7A6236",
"[  c #76623B",
"{  c #7D663A",
"}  c #7F683C",
"|  c #746240",
" . c #7F6940",
".. c #826A3C",
"X. c #846E42",
"o. c #886F41",
"O. c #877145",
"+. c #8B7344",
"@. c #8D7649",
"#. c #8F784B",
"$. c #907748",
"%. c #957C4D",
"&. c #987F4F",
"*. c #378137",
"=. c #388337",
"-. c #3A8738",
";. c #3B8938",
":. c #99804F",
">. c #9A8150",
",. c #3B8938",
/* pixels */
";.;.;.;.;.;.;.;.;.;.;.;.;.;.;.=.B B N N N N N N B k i >     +         @ q f B B N N N N B N N C ;.;.;.;.;.;.;.;.;.;.;.;.;.;.;.,.",
";.;.;.;.;.;.;.;.;.;.;.;.;.;.;.-.B N N N N N N N N b i $ X           X X w f B B N N N N N N N C ;.;.;.;.;.;.;.;.;.;.;.;.;.;.;.;.",
";.;.;.;.;.;.;.;.;.-.Z C C C C C B N N N B N N b j d # ; < 6 R R T U - < # y h k N N N N N N N B C C C C C =.;.;.;.;.;.;.;.;.;.;.",
";.;.;.;.;.;.;.;.;.-.N N N N N N N N N N N N B c q >   O 7 ~ %.:.>.X.G 1   X i h B N B N N N B N N N N B B C ;.;.;.;.;.;.;.;.;.;.",
";.-.Z C C C C C C C N N N N N N N N N N B b j d # ; < 8 ` } %.:.:.@.' R < - # $ j k B B N N N N B N N N N C C C C C C C C =.-.;.",
";.=.N N N N N N N N N N N N B N N N N B B c q $   O 7 W &.>.:.:.:.:.:.X.G 1 X X q f B B B N B B B B N N N b B c B B B N N C ;.;.",
"C C x k h h u , u u > , u u h k N N j f u , @ ; < 1 8 H ) _ ` / / / _ W S 7 < < # # u d h k N k h d u , u , , , u a h k x B C C ",
"B N z l i y               X q d N b i $       O 7 G 8 8 7 7 7 S 7 F 8 8 8 8 8 1       X w h N k i #               # i s l x N B ",
"n k f p ; ; 8 G F F S F J D ; ; , ; * : 0 J ( ( [ { [ [ ` { ` { [ [ [ [ [ [ [ [ ( T S 3 @ ; , > @ 2 G G 0 G G 0 F 3 @ $ r g x x ",
"t r w y X & / ' _ _ _ _ _ W .       + = _ { >.>.&.&.&.&.&.>.&.&.:.:.:.:.:.:.:.:.:.+.' L   +       6 _ _ _ _ _ _ ' 0   # i s l l ",
"t r i q X & ! _ _ ' ..O.+.[ 1 1 < 6 0 P X.O.&.$.X.......o.......................%.%...[ G 7 1 < - Y +.o.+..._ _ _ S   @ i s l l ",
"z r q q X & ! _ _ ] :.:.&.@.G 8 8 K _ { %.&.&.@._ _ _ _ _ _ _ _ _ _ _ ' _ _ ' ..:.:.:.+._ W 8 S 8 / &.&.&.o._ _ _ G   # q s l l ",
"t r w y X o K E _ _ ..} / ^ 8 L ` ..o.+.%.%....._ _ o.o.o.o.o.o...+.+...+..._ ' ..+.%.$...+.{ ^ 8 P / ` ..] _ ! P 6 + # i f r t ",
"t g q y o o 7 G ! _ _ ! 8 8 8 P %.&.&.&.&.$._ _ _ { &.&.&.&.&.&.:.:.:.:.:.$._ _ _ { &.&.:.:.:.[ 8 8 8 P _ _ _ E 0 -   # i e z t ",
"V V g s X . - < K E P K 8 L [  .%.%........._ _ o.+.&.%.................:.$.+..._ ' ......+.%.@.| ^ 8 G E P P 8 - O   # r n V C ",
";.=.z g   .   . 8 8 8 8 8 P %.&.&.$._ _ ! _ _ { &.&.&.$._ _ _ _ _ _ _ { %.:.:.@._ _ _ _ _ ..&.&.>.{ 8 8 8 8 8 <       $ r V ;.;.",
";.=.z r $ # X o & < 0 J ` X.%.$.X..._ _ +.X.K E ^ _ ...._ _ _ _ _ _ _ ' ..[ ^ Q H ^ +..._ ' ..+.>.@.{ ^ S 1 - O   X # w t M ;.;.",
";.=.z r w q X     o 7 P %.&.&.$._ ! ! ..&.o.8 8 8 H ! _ _ _ _ _ _ _ _ _ _ Q 8 8 8 Q &.+._ _ _ ..>.&.>.[ S <     X # i s t V ;.;.",
";.;.Z V g e $ #   & | X.&.%....._ _ $.+.%.$.Q E 8 8 E W ! _ o.+.+..._ ! P K S G W ' &.$.+..._ ' ..O.:.@.} Y X X $ i s n Z *.;.;.",
";.;.;.=.z f i q + - $.&.&.$._ _ _ _ &.&.&.$._ ! 8 8 8 K _ ..&.&.:.@._ Q 8 8 8 H _ ..%.&.&.+._ _ _ } &.&.:.( X # i s t M ;.;.;.;.",
";.;.;.;.Z V q q + = #.%...} _ ] o.+.&.%.....! ! Q E 8 8 K ^ %.&.&.+.L K 8 G Q Q _ ] } o.%.$.+..._ ] ..+.&.(   X q n Z *.;.;.;.;.",
";.;.;.;.;.=.f q + - #.$._ _ _ ] &.&.&.$._ _ _ _ _ ^ 8 8 8 E &.&.&...8 8 8 H _ _ _ _ ! ..&.%.&.+._ _ _ ..&.(   # q c ;.;.;.;.;.;.",
";.;.;.;.;.A # X   - $.$._ _ _ ] %.&.&.$._ _ _ ..$.{ 0 7 = 6 ~ ~ ~ L - < 8 W +..._ _ _ ..&.&.&.o._ _ _ ..:.(   o X k ;.;.;.;.;.;.",
";.;.;.;.;.*.o X + = %.%._ _ _ ] %.%.&.$._ _ _ _ &.o.8 6   & 8 8 8 6 . O S ~ :.+._ _ ! ..&.&.&.+._ _ ! ..:.(       h ;.;.;.=.;.;.",
";.;.;.A a , 1 1 o - #.$._ _ _ ] %.%.&.$._ _ _ _ &.O.0 6   . - = = O   = 8 ~ %.+._ _ _ ..&.&.:.+._ _ _ ..&.(   O 1 2 , b =.;.;.;.",
";.;.;.C O o 7 7 o = #.%._ _ _ } %.&.&.$._ _ _ ..&.O.8 6 . .       .   = 8 ~ &.+._ _ ! ..&.%.:.+._ _ _ ..&.~   - G <   h ;.;.;.;.",
";.*.a u L L G 7 % = #.$.] _ _ ] %.%.&.$._ _ _ ..&.O.8 7 .             = 8 ~ &.+._ _ ! ..%.%.&.+._ _ _ ..&.(   - 8 G H D , b ;.;.",
";.*.o O ! ! G 7 . - #.%._ _ _ ] %.&.&.$._ _ _ _ &.o.8 7   .     .     = 8 ~ &.+._ _ _ } &.&.&..._ _ _ ..&.(   - 8 E ] 8   h ;.;.",
"u u L E O.X.G 7 . - #.$.` _ _ ] %.&.&.$._ _ _ ..&.X.0 7 . O 6 6 6 -   & 8 ~ :.+._ _ _ ..&.%.&.+._ _ _ ..:.(   - 8 ^ @.' K D , , ",
"  O Q ] %.@.G 7 + - #.$._ _ _ ] %.%.%.$._ _ _ _ &.X.8 6 . & 8 8 G 6   & 7 W &.+._ _ _ ..&.&.&.o._ _ _ ..&.(   - 8 / >.o._ 8     ",
"  o Q ] %.@.G 7 . - #.%.] _ _ ] %.&.&.%.$.o._ _ ~ L = - 6 0 X.X.X.) 6 1 = 6 W ^ _ ] +.$.%.&.&.+._ _ _ ..&.(   - 8 ` :.o._ 0     ",
"  O ! ] $.@.L 7 . - #.#._ _ _ { %.%.%.&.&.$._ ! 8 6   & 8 E &.&.&.X.G 6 . O 7 K _ ..&.&.&.%.%.+._ _ _ ..&.(   - 8 / &.X._ 0     ",
"  o G P [ _ G 8 6 6 5 I +.o._ _ } ..%.&.&.O.P K 8 G P E Q _ %.&.&.+.! W P K 8 G K ! &.&.&.$..._ _ ..$./ 1 6 6 8 8 E { ^ K 6     ",
"  . 8 G ! ! G 8 0 9   - $.%.` _ _ ] %.%.&.o.8 8 8 K _ _ _ } %.%.&.+._ _ _ ! G 8 8 ~ %.%.%.o._ ! _ ..&.(   = 0 8 8 E _ E 8 <   . ",
"> $ & = < 1 7 S 0 8 . - $.&.$.o._ _ } _ ~ P 8 P X.X.$.o._ _ ..{ } ] _ ] @.O.X._ 8 K E ! .._ _ ..$.$.&.(   - 8 8 8 7 - - O ; $ $ ",
"y q X     % 8 8 8 7 . - #.&.&.$._ _ _ ! S 8 0 E &.&.&.$._ _ _ _ ! _ _ ..&.&.>. .0 0 8 K _ _ _ X.&.&.&.( . < 0 8 8 < .     # y y ",
"i i p w $ ; * - 8 8 6 1 4 I %.%.$.+._ _ ! Q Q ^ { ..&.%.$..._ _ _ ] @.$.%.$.} _ ^ Q Q ! _ ..$.$.&.| 4 1 6 8 0 6 O ; q q p w q w ",
"y i l l i y X o 8 8 8 8   - @.%.&.$._ _ _ _ _ _ _ ] %.&.&.@._ _ _ ..&.%.&.O._ _ _ _ _ _ _ ..&.&.&.(   = 8 8 8 <   # i r z f i i ",
"Z Z z r i q $ > & = 8 7 . % 4 I %.%.$.$.$.$.$.+._ _ ] ..&.%.$.$.+.$.&.$.{ ] _ { $.$.$.@.+.%.&.| 4 -   - 8 1 & ; $ q y q r v Z Z ",
";.=.z g i i i y   % 8 6 . +   < @.%.%.%.%.%.&.$._ _ _ } %.%.%.%.&.&.&.+._ _ _ ..%.%.%.%.%.%.&.( .     - 8 1   * i y i r t V ;.;.",
";.-.*.Z r r r r q > O O   o 6 6 4 9 P P P ( &.%.$.+._ _ } } [ } ] ] { ] _ { $.$.&.X.P T E 8 1 6 7 - X o O ; $ q f r r m *.=.;.;.",
";.;.;.=.z t t g q q     X O 7 7 . % 8 8 8 P $.%.>.@._ _ _ _ _ _ _ _ _ _ _ ..&.%.&. .8 8 8 1 . = G 1 X X   # q r t g t V ;.;.;.;.",
";.;.;.-.*.Z j t i > X * P W Q W 7 1 & - 8 G P / %.%.$.+._ _ _ _ _ _ _ ] @.$.&.X.E K 8 6 . < 6 S Q Q W 7   # q f t m *.=.;.;.;.;.",
";.;.;.;.;.=.z t i y X = _ _ _ ! G 7 . O 7 7 8 T $.%.%.@._ _ _ _ _ _ _ ..%.%.%.} 8 8 8 1 . - S E _ _ _ F X O y r z V ;.;.;.;.;.;.",
";.;.;.;.;.-.*.V O X X = ! _ _ _ ! E 7 1 O - 8 G P P P ^ @.@.$.$.$.$.$. .P P P K 0 6 . - 7 8 Q ! _ _ _ G   X X d *.*.;.;.;.;.;.;.",
";.;.;.;.;.;.;.Z o   X O ! _ _ _ _ ! G 7 o O 8 8 8 8 8 E %.%.%.%.%.%.%. .8 8 8 8 8 1 . - 8 E _ _ _ _ _ G   o   d ;.;.;.;.;.;.;.;.",
";.;.;.;.;.=.j s X o 6 7 G P _ _ _ ! 8 8 7 1 o - 8 8 8 G L P H P P P P L 8 0 8 6 o - 6 8 8 H _ _ _ W J S 6 -   # g v ;.;.;.;.;.;.",
";.;.;.;.;.*.i > o O 8 G 8 G ! ! _ ! G 8 8 7 . o 8 8 8 8 8 8 8 8 8 8 8 8 8 0 G 6 . = 8 8 8 E _ _ _ W 8 S G 1 o ; q c ;.;.;.;.;.;.",
";.;.;.=.;.A * & E ~ ! W G S G G H G 8 8 S 7 o O 7 S S 7 o O o O o O O - 8 8 S 1 . = 8 8 S S G G G G 8 H ! Q W D X h ;.;.;.;.;.;.",
";.;.;.;.=.C * = ! ' _ ! G 8 S 8 8 8 8 8 8 6   O 8 8 8 6 o . . . . . . O 8 8 S 6 . O 8 8 S 8 8 8 S 8 8 E _ _ ' G . d =.-.;.;.;.;.",
";.;.;.A > : E Q _ _ _ _ ! W G 7 O O 8 7 O o   O 8 7 o O 7 7 7 7 7 7 7 1 o - S 1   o o - S 6 o < 8 H ! ! _ _ _ ! W D * k ;.;.;.;.",
";.;.;.A @ O ! _ _ _ _ _ _ ! G 7 X O 7 3 X X X O 7 6 o = 8 8 S G S S S 6 o O 8 1     o = 7 1   = S E _ _ _ _ _ _ _ G   d ;.;.;.;.",
";.;.;.A X O ! _ _ _ _ ' _ ! G 7 X X o O $ $   . O O 7 7 8 H ! ! ! W S 8 7 1 O o   # y # o o   - 8 P _ _ _ _ _ _ _ 0 . d ;.;.;.;.",
";.;.;.C o O ! _ _ _ _ ! ! Q G 6 o X o X y q X X o O 8 S 8 H _ _ _ Q 8 8 S 1 X   o X i $   o   = 8 P ! ! _ _ _ _ _ 8 . d ;.;.;.;.",
";.;.;.A X & ! _ _ ! H S O - 8 7 X X $ q i y q $   O 8 8 S H _ _ _ Q S 8 S 6 X # q y i y q # . O G 6 O 1 G W _ ' _ G . d ;.;.;.;.",
";.=.;.A ; O Q / ! W S 6 o o 7 6 o X i y i i i i X O 7 S 7 H ! _ _ Q 8 8 7 1 X X y y i i y $ X - 8 <   - 7 H ! ! _ 0 . h ;.;.;.;.",
";.;.;.C X o S S O : y y y > o O y q i f t r q q q $ O O 8 8 G G G S 8 6 O O q q q r r r i y q $ o O q y a > & 1 K 1   d ;.;.;.;.",
";.;.;.A # o 7 7 o X y i i y X X q q i q z g q w i q X O 8 8 G S G S 8 6   o i i q r j t i i q $ X # i w q # X < S -   h ;.;.;.;.",
";.;.;.=.i y d i g e w s r g i i r r r x =.Z r r f w X O 8 H Q ! ! W 8 6   @ r r t n *.V r t t r y q t r q q r p a y y c ;.;.;.;.",
";.;.;.=.f s q f z z i q j g i s z z z m ;.*.z z z s o O 7 G _ _ _ W 8 1 X $ t m t M ;.Z j t j t q r j g s g n g s i i v ;.;.;.;.",
";.;.;.;.=.*.*.=.=.Z t z *.Z t z *.*.*.=.;.;.=.=.=.C q $ o O G G G 7 o ; q j *.=.*.-.;.-.-.*.*.V t n -.V r m =.=.=.=.=.=.;.;.;.;.",
";.;.;.;.;.;.;.;.;.*.n n -.=.n n ;.;.;.;.;.;.;.;.;.A s y X O 7 8 8 1 X X i c ;.;.;.-.;.;.;.;.;.Z j V ;.Z g C ;.;.;.;.;.;.;.;.;.;.",
";.;.;.;.;.;.;.;.-.;.=.=.;.-.*.=.;.;.;.;.;.;.;.;.;.;.=.v y $ o X o O q j *.=.;.;.;.;.;.;.;.-.;.-.*.-.-.-.=.=.;.;.=.;.;.;.;.;.;.;.",
";.;.;.;.;.;.;.;.;.;.;.;.;.;.;.-.;.;.;.;.;.;.;.;.;.;.;.C i q X X X X q j ;.;.;.;.;.;.;.;.;.;.;.;.;.;.;.;.;.;.;.;.;.;.;.;.;.;.;.;."
};
