/* XPM */
static char *result[] = {
/* columns rows colors chars-per-pixel */
"64 64 96 2 ",
"   c #3B8938",
".  c #346831",
"X  c #2A572B",
"o  c #1F4624",
"O  c #204724",
"+  c #214925",
"@  c #326530",
"#  c #336831",
"$  c #2E5F2E",
"%  c #204624",
"&  c #1F4724",
"*  c #204824",
"=  c #2F602E",
"-  c #29522A",
";  c #1F3B22",
":  c #203D23",
">  c #1F3D22",
",  c #204424",
"<  c #2D5D2D",
"1  c #2B572B",
"2  c #1F3C22",
"3  c #346932",
"4  c #284227",
"5  c #1D1B1D",
"6  c #1E1D1E",
"7  c #294328",
"8  c #1D1C1D",
"9  c #1E1E1E",
"0  c #203E23",
"q  c #204924",
"w  c #1D1D1E",
"e  c #1C1D1E",
"r  c #1C1C1E",
"t  c #1F3E23",
"y  c #29572A",
"u  c #2C5B2C",
"i  c #1F2D20",
"p  c #1F3321",
"a  c #2A2620",
"s  c #362F21",
"d  c #362E21",
"f  c #253221",
"g  c #1F4523",
"h  c #244E27",
"j  c #504124",
"k  c #4F4024",
"l  c #4F4124",
"z  c #2A251F",
"x  c #1D1C1E",
"c  c #254F27",
"v  c #4D3F24",
"b  c #4E4024",
"n  c #2A261F",
"m  c #346A32",
"M  c #1D1E1E",
"N  c #352E21",
"B  c #29261F",
"V  c #255128",
"C  c #213623",
"Z  c #1E1C1E",
"A  c #393121",
"S  c #423723",
"D  c #413723",
"F  c #413722",
"G  c #473B23",
"H  c #443923",
"J  c #1F3221",
"K  c #4E3F24",
"L  c #203221",
"P  c #211F1E",
"I  c #21201E",
"U  c #20201E",
"Y  c #4C3E24",
"T  c #4A3D24",
"R  c #1E201E",
"E  c #1E211E",
"W  c #1D201E",
"Q  c #342F21",
"!  c #4B3E24",
"~  c #1F3521",
"^  c #24221F",
"/  c #204524",
"(  c #233023",
")  c #222C22",
"_  c #2E562D",
"`  c #2E552C",
"'  c #1E1B1D",
"]  c #2E5A2D",
"[  c #1F2820",
"{  c #204A24",
"}  c #274E28",
"|  c #1E261F",
" . c #2A582B",
".. c #1E281F",
"X. c white",
"[. c #3B8938",
/* pixels */
"[.[.[.[.[.[.[.[.[.[.[.[.[.[.[.[.[.[.[.[.[.[.[.[.[.[.[.[.[.[.[.[.[.[.[.[.[.[.[.[.[.[.[.[.[.[.[.[.[.[.[.[.[.[.[.[.[.[.[.[.[.[.[.[.",
"[.[.[.[.[.[.[.[.[.[.[.[.[.[.[.[.[.[.[.[.[.[.[.[.[.[.[.[.[.[.[.[.[.[.[.[.[.[.[.[.[.[.[.[.[.[.[.[.[.[.[.[.[.[.[.[.[.[.[.[.[.[.[.[.",
"[.[.            . X o O O O O O + @   # $ % O O O O O % $ #         # $ % O O O O O % $ #   @ + O O O O O o X .             [.[.",
"[.[.            . X o O O O O O + @   # $ % O O O O O % $ #         # $ % O O O O O % $ #   @ + O O O O O o X .             [.[.",
"[.[.            . X & * * O O O + @ # . = O * * * * * O = . # # # # . = O * * * * * O = . # @ + O O O * * & X .             [.[.",
"[.[.            . - ; : > , O O + < $ = 1 2 : : : : : 2 1 = $ $ $ $ = 1 2 : : : : : 2 1 = $ < + O O , > : ; - .             [.[.",
"[.[.            3 4 5 6 6 > * O O % % O 2 6 6 6 6 6 6 6 2 O % % % % O 2 6 6 6 6 6 6 6 2 O % % O O * > 6 6 5 4 3             [.[.",
"[.[.            3 7 8 9 6 : * O O O O * : 6 9 9 9 9 9 6 : * O O O O * : 6 9 9 9 9 9 6 : * O O O O * : 6 9 8 7 3             [.[.",
"[.[.. . . #     3 7 8 9 6 0 q * * * * q 0 6 9 9 w e e r t q * * * * q t r e e w 9 9 6 0 q * * * * q 0 6 9 8 7 3     # . . . [.[.",
"[.[.X X y u     3 7 8 9 9 i p p p p p p i 9 9 w a s s d f p p p p p p f d s s a w 9 9 i p p p p p p i 9 9 8 7 3     u y X X [.[.",
"[.[.o o g h #   3 7 8 9 9 6 6 6 6 6 6 6 6 9 9 e s j k l z x 6 6 6 6 x z l k j s e 9 9 6 6 6 6 6 6 6 6 9 9 8 7 3   # h g o o [.[.",
"[.[.O O % c #   3 7 8 9 9 9 9 9 9 9 9 9 9 9 9 e s k v b n w 9 9 9 9 w n b v k s e 9 9 9 9 9 9 9 9 9 9 9 9 8 7 3   # c % O O [.[.",
"[.[.O O % c . # m 7 8 9 9 M w w w w w w w w w r N k v b B e w w w w e B b v k N r w w w w w w w w w M 9 9 8 7 m # . c % O O [.[.",
"[.[.O O O + c c V C Z 9 M A S D D D D D D D D F G v v v H F D D D D F H v v v G F D D D D D D D D S A M 9 Z C V c c + O O O [.[.",
"[.[.O O O O % % * J 6 9 w S k b b b b b b b b b v v v v K b b b b b b K v v v v b b b b b b b b b k S w 9 6 J * % % O O O O [.[.",
"[.[.O O O O O O * p 6 9 w D b v v v v v v v v v v v v v v v v v v v v v v v v v v v v v v v v v v b D w 9 6 p * O O O O O O [.[.",
"[.[.O O O % , , % L P I U S b v v v v v Y T T T T T T T T T T T T T T T T T T T T T T Y v v v v v b S U I P L % , , % O O O [.[.",
"[.[.O O * : R E W Q ! T T Y v v v v v b S U I I I I I I I I I I I I I I I I I I I I U S b v v v v v Y T T ! Q W E R : * O O [.[.",
"[.[.O O * : 6 9 e d k v v v v v v v v b D w 9 9 9 9 9 9 9 9 9 9 9 9 9 9 9 9 9 9 9 9 w D b v v v v v v v v k d e 9 6 : * O O [.[.",
"[.[.* * * : 6 9 e s k v v K b b b b b k S w 9 9 9 9 9 9 9 9 9 9 9 9 9 9 9 9 9 9 9 9 w S k b b b b b K v v k s e 9 6 : * * * [.[.",
"[.[.: : : ~ 6 9 e s k v v H F D D D D S A M 9 9 9 9 9 9 9 9 9 9 9 9 9 9 9 9 9 9 9 9 M A S D D D D F H v v k s e 9 6 ~ : : : [.[.",
"[.[.6 6 6 6 9 9 e s k v b B e w w w w w M 9 9 9 9 9 9 9 9 9 9 9 9 9 9 9 9 9 9 9 9 9 9 M w w w w w e B b v k s e 9 9 6 6 6 6 [.[.",
"[.[.9 9 9 9 9 9 e s k v b n w 9 9 9 9 9 9 9 9 9 9 9 9 9 9 9 9 9 9 9 9 9 9 9 9 9 9 9 9 9 9 9 9 9 9 w n b v k s e 9 9 9 9 9 9 [.[.",
"[.[.6 6 6 6 9 9 e s k v b n w 9 9 9 9 9 9 9 9 9 9 9 9 9 9 9 9 9 9 9 9 9 9 9 9 9 9 9 9 9 9 9 9 9 9 w n b v k s e 9 9 6 6 6 6 [.[.",
"[.[.p p p i 9 9 e s k v b n w 9 9 9 9 9 9 9 9 9 9 9 9 9 9 9 9 9 9 9 9 9 9 9 9 9 9 9 9 9 9 9 9 9 9 w n b v k s e 9 9 i p p p [.[.",
"[.[.* * q 0 6 9 e s k v b n w 9 9 9 9 9 9 9 9 9 9 9 9 9 9 9 9 9 9 9 9 9 9 9 9 9 9 9 9 9 9 9 9 9 9 w n b v k s e 9 6 0 q * * [.[.",
"[.[.O O * : 6 9 e s k v b n w 9 9 9 9 9 9 9 9 9 9 9 9 9 9 9 9 9 9 9 9 9 9 9 9 9 9 9 9 9 9 9 9 9 9 w n b v k s e 9 6 : * O O [.[.",
"[.[.O O * : 6 9 e s l b k a w 9 9 9 9 9 9 9 9 9 9 9 9 9 9 9 9 9 9 9 9 9 9 9 9 9 9 9 9 9 9 9 9 9 9 w a k b l s e 9 6 : * O O [.[.",
"[.[.O O * : 6 9 9 ^ a n a I 9 9 9 9 9 9 9 9 9 9 9 9 9 9 9 9 9 9 9 9 9 9 9 9 9 9 9 9 9 9 9 9 9 9 9 9 I a n a ^ 9 9 6 : * O O [.[.",
"[.[.O O * : 6 9 9 9 w w w 9 9 9 9 9 9 9 9 9 9 9 9 9 9 9 9 9 9 9 9 9 9 9 9 9 9 9 9 9 9 9 9 9 9 9 9 9 9 w w w 9 9 9 6 : * O O [.[.",
"[.[.O O * : 6 9 9 9 9 9 9 9 9 9 9 9 9 9 9 9 9 9 9 9 9 9 9 9 9 9 9 9 9 9 9 9 9 9 9 9 9 9 9 9 9 9 9 9 9 9 9 9 9 9 9 6 : * O O [.[.",
"[.[.O O * : 6 9 9 9 9 9 9 9 9 9 9 9 9 9 9 9 9 9 9 9 9 9 9 9 9 9 9 9 9 9 9 9 9 9 9 9 9 9 9 9 9 9 9 9 9 9 9 9 9 9 9 6 : * O O [.[.",
"[.[.O O * : 6 9 9 9 9 9 9 9 9 9 9 9 9 9 9 9 9 9 9 9 9 9 9 9 9 9 9 9 9 9 9 9 9 9 9 9 9 9 9 9 9 9 9 9 9 9 9 9 9 9 9 6 : * O O [.[.",
"[.[.O O * : 6 9 9 9 9 9 9 9 9 9 9 9 9 9 9 9 9 9 9 9 9 9 9 9 9 9 9 9 9 9 9 9 9 9 9 9 9 9 9 9 9 9 9 9 9 9 9 9 9 9 9 6 : * O O [.[.",
"[.[.* * * : 6 9 9 9 9 9 9 9 9 9 9 9 9 9 9 9 9 9 9 9 9 9 9 9 9 9 9 9 9 9 9 9 9 9 9 9 9 9 9 9 9 9 9 9 9 9 9 9 9 9 9 6 : * * * [.[.",
"[.[.: : : ~ 6 9 9 9 9 9 9 9 9 9 9 9 9 9 9 9 9 9 9 9 9 9 9 9 9 9 9 9 9 9 9 9 9 9 9 9 9 9 9 9 9 9 9 9 9 9 9 9 9 9 9 6 ~ : : : [.[.",
"[.[.6 6 6 6 9 9 9 9 9 9 9 9 9 9 9 9 9 9 9 9 9 9 9 9 9 9 9 9 9 9 9 9 9 9 9 9 9 9 9 9 9 9 9 9 9 9 9 9 9 9 9 9 9 9 9 9 6 6 6 6 [.[.",
"[.[.9 9 9 9 9 9 9 9 9 9 9 9 9 9 9 9 9 9 9 9 9 9 9 9 9 9 9 9 9 9 9 9 9 9 9 9 9 9 9 9 9 9 9 9 9 9 9 9 9 9 9 9 9 9 9 9 9 9 9 9 [.[.",
"[.[.6 6 6 6 9 9 9 9 9 9 9 9 9 9 9 9 9 9 9 9 9 9 9 9 9 9 9 9 9 9 9 9 9 9 9 9 9 9 9 9 9 9 9 9 9 9 9 9 9 9 9 9 9 9 9 9 6 6 6 6 [.[.",
"[.[.p p p i 9 9 9 9 9 9 9 9 9 9 9 9 9 9 9 9 9 9 9 9 9 9 9 9 9 9 9 9 9 9 9 9 9 9 9 9 9 9 9 9 9 9 9 9 9 9 9 9 9 9 9 9 i p p p [.[.",
"[.[.* * q 0 6 9 9 9 9 9 9 9 9 9 9 9 9 9 9 9 9 9 9 9 9 9 9 9 9 9 9 9 9 9 9 9 9 9 9 9 9 9 9 9 9 9 9 9 9 9 9 9 9 9 9 6 0 q * * [.[.",
"[.[.O O * : 6 9 9 9 9 9 9 9 9 9 9 9 9 9 9 9 9 9 9 9 9 9 9 9 9 9 9 9 9 9 9 9 9 9 9 9 9 9 9 9 9 9 9 9 9 9 9 9 9 9 9 6 : * O O [.[.",
"[.[.O O * : 6 9 9 9 9 9 9 9 9 9 9 9 9 9 9 9 9 9 9 9 9 9 9 9 9 9 9 9 9 9 9 9 9 9 9 9 9 9 9 9 9 9 9 9 9 9 9 9 9 9 9 6 : * O O [.[.",
"[.[.O O * : 6 9 9 9 9 9 9 9 9 9 9 9 9 9 9 9 9 9 9 9 9 9 9 9 9 9 9 9 9 9 9 9 9 9 9 9 9 9 9 9 9 9 9 9 9 9 9 9 9 9 9 6 : * O O [.[.",
"[.[.O O * : 6 9 9 9 9 9 9 9 9 9 9 9 9 9 9 9 9 9 9 9 9 9 9 9 9 9 9 9 9 9 9 9 9 9 9 9 9 9 9 9 9 9 9 9 9 9 9 9 9 9 9 6 : * O O [.[.",
"[.[.O O * : 6 9 9 9 9 9 9 9 9 9 9 9 9 9 9 9 9 9 9 9 9 9 9 9 9 9 9 9 9 9 9 9 9 9 9 9 9 9 9 9 9 9 9 9 9 9 9 9 9 9 9 6 : * O O [.[.",
"[.[., , / ; 6 9 9 9 9 9 9 9 9 9 9 9 9 9 9 9 9 9 9 9 9 9 9 9 9 9 9 9 9 9 9 9 9 9 9 9 9 9 9 9 9 9 9 9 9 9 9 9 9 9 9 6 ; / , , [.[.",
"[.[.E E E R 9 9 9 9 9 9 9 9 9 9 9 9 9 9 9 9 9 9 9 9 9 9 9 9 9 9 9 9 9 9 9 9 9 9 9 9 9 9 9 9 9 9 9 9 9 9 9 9 9 9 9 9 R E E E [.[.",
"[.[.9 9 9 9 9 9 9 9 9 9 9 9 9 9 9 9 9 9 9 9 9 9 9 9 9 9 9 9 9 9 9 9 9 9 9 9 9 9 9 9 9 9 9 9 9 9 9 9 9 9 9 9 9 9 9 9 9 9 9 9 [.[.",
"[.[.6 6 6 6 9 9 9 9 9 9 9 9 9 9 9 9 9 9 9 9 9 9 9 9 9 9 9 9 9 9 9 9 9 9 9 9 9 9 9 9 9 9 9 9 9 9 9 9 9 9 9 9 9 9 9 9 6 6 6 6 [.[.",
"[.[.( ( ( ) 9 9 9 9 9 9 9 9 9 9 9 9 9 9 9 9 9 9 9 9 9 9 9 9 9 9 9 9 9 9 9 9 9 9 9 9 9 9 9 9 9 9 9 9 9 9 9 9 9 9 9 9 ) ( ( ( [.[.",
"[.[.# # 3 _ 6 9 9 9 9 9 9 9 9 9 9 9 9 9 9 9 9 9 9 9 9 9 9 9 9 9 9 9 9 9 9 9 9 9 9 9 9 9 9 9 9 9 9 9 9 9 9 9 9 9 9 6 _ 3 # # [.[.",
"[.[.    # ` 6 9 9 9 9 9 9 9 9 9 9 9 9 9 9 9 9 9 9 9 9 9 9 9 9 9 9 9 9 9 9 9 9 9 9 9 9 9 9 9 9 9 9 9 9 9 9 9 9 9 9 6 ` #     [.[.",
"[.[.    # ` ' 6 6 6 9 9 9 9 9 9 9 9 9 9 9 9 9 9 9 9 9 9 9 9 9 9 9 9 9 9 9 9 9 9 9 9 9 9 9 9 9 9 9 9 9 9 9 9 6 6 6 ' ` #     [.[.",
"[.[.    # ] J p p [ 6 9 9 9 9 9 9 9 9 9 9 9 9 9 9 9 9 9 9 9 9 9 9 9 9 9 9 9 9 9 9 9 9 9 9 9 9 9 9 9 9 9 9 6 [ p p J ] #     [.[.",
"[.[.    # $ * * { p 6 9 9 9 9 9 9 9 9 9 9 9 9 9 9 9 9 9 9 9 9 9 9 9 9 9 9 9 9 9 9 9 9 9 9 9 9 9 9 9 9 9 9 6 p { * * $ #     [.[.",
"[.[.    # $ % O * p 6 9 9 9 9 9 9 9 9 9 9 9 9 9 9 9 9 9 9 9 9 9 9 9 9 9 9 9 9 9 9 9 9 9 9 9 9 9 9 9 9 9 9 6 p * O % $ #     [.[.",
"[.[.    # $ o % * J Z 6 6 6 6 6 6 9 9 9 9 6 6 6 6 6 6 6 9 9 9 9 9 9 9 9 6 6 6 6 6 6 6 9 9 9 9 6 6 6 6 6 6 Z J * % o $ #     [.[.",
"[.[.      @ $ $ = } 2 : : : : : ; R 9 6 | : : : : : : : | 6 9 9 9 9 6 | : : : : : : : | 6 9 R ; : : : : : 2 } = $ $ @       [.[.",
"[.[.        # # 3  .& * * * * * / E 9 6 [ * * * * * * * [ 6 9 9 9 9 6 [ * * * * * * * [ 6 9 E / * * * * * &  .3 # #         [.[.",
"[.[.            . X o O O O O O , E 9 6 ..* O O O O O * ..6 9 9 9 9 6 ..* O O O O O * ..6 9 E , O O O O O o X .             [.[.",
"[.[.            . X o O O O O O , E 9 6 ..* O O O O O * ..6 9 9 9 9 6 ..* O O O O O * ..6 9 E , O O O O O o X .             [.[.",
"[.[.[.[.[.[.[.[.[.[.[.[.[.[.[.[.[.[.[.[.[.[.[.[.[.[.[.[.[.[.[.[.[.[.[.[.[.[.[.[.[.[.[.[.[.[.[.[.[.[.[.[.[.[.[.[.[.[.[.[.[.[.[.[.",
"[.[.[.[.[.[.[.[.[.[.[.[.[.[.[.[.[.[.[.[.[.[.[.[.[.[.[.[.[.[.[.[.[.[.[.[.[.[.[.[.[.[.[.[.[.[.[.[.[.[.[.[.[.[.[.[.[.[.[.[.[.[.[.[."
};
