/* XPM */
static char *result[] = {
/* columns rows colors chars-per-pixel */
"64 64 227 2 ",
"   c #000001",
".  c #0B0604",
"X  c #020C05",
"o  c #0D0905",
"O  c #140C09",
"+  c #031A09",
"@  c #041507",
"#  c #1E110B",
"$  c #16120D",
"%  c #00131D",
"&  c #191713",
"*  c #2B190D",
"=  c #26150B",
"-  c #271913",
";  c #331C15",
":  c #301B0E",
">  c #062A0D",
",  c #06270C",
"<  c #123311",
"1  c #3E2312",
"2  c #3D251A",
"3  c #2C3B1A",
"4  c #2C2F32",
"5  c #4A2A19",
"6  c #5C341A",
"7  c #4E361D",
"8  c #6B3B1D",
"9  c #663A1D",
"0  c #723E1D",
"q  c #4C2A21",
"w  c #4E3526",
"e  c #6A3C21",
"r  c #753E20",
"t  c #09410B",
"y  c #0A4C1A",
"u  c #0D4316",
"i  c #0B511B",
"p  c #0B5616",
"a  c #165B1A",
"s  c #134F10",
"d  c #2A4413",
"f  c #20561A",
"g  c #16671B",
"h  c #266419",
"j  c #29671A",
"k  c #305523",
"l  c #0E6D25",
"z  c #0D6120",
"x  c #0C7A27",
"c  c #0F7B29",
"v  c #0F7628",
"b  c #117C29",
"n  c #1A7627",
"m  c #186721",
"M  c #326826",
"N  c #227A2C",
"B  c #584C10",
"V  c #72401F",
"C  c #5B4E22",
"Z  c #565323",
"A  c #415332",
"S  c #6A4825",
"D  c #744221",
"F  c #7D4C2B",
"G  c #7A4825",
"H  c #6F562E",
"J  c #526B28",
"K  c #636123",
"L  c #727B39",
"P  c #586513",
"I  c #2B3847",
"U  c #1F364D",
"Y  c #314E69",
"T  c #544D4C",
"R  c #4F4F64",
"E  c #737577",
"W  c #67636E",
"Q  c #6F6753",
"!  c #85571B",
"~  c #85572B",
"^  c #855735",
"/  c #92672C",
"(  c #896635",
")  c #926534",
"_  c #966B39",
"`  c #9B773D",
"'  c #A47A3F",
"]  c #A8793D",
"[  c #A3772D",
"{  c #946743",
"}  c #9D724D",
"|  c #8C7258",
" . c #A27742",
".. c #A47A41",
"X. c #A97E43",
"o. c #A5784A",
"O. c #A37A55",
"+. c #916D53",
"@. c #1C8529",
"#. c #168129",
"$. c #208829",
"%. c #298826",
"&. c #2E9328",
"*. c #359B29",
"=. c #379A28",
"-. c #3EA229",
";. c #78811B",
":. c #4A8726",
">. c #508830",
",. c #649732",
"<. c #788D36",
"1. c #42A429",
"2. c #43A82A",
"3. c #4BA12B",
"4. c #508E49",
"5. c #4D8A45",
"6. c #AB8B13",
"7. c #A7AB05",
"8. c #8A863B",
"9. c #818839",
"0. c #919036",
"q. c #AB843C",
"w. c #AE893A",
"e. c #A98439",
"r. c #B18C3A",
"t. c #B79536",
"y. c #AF8B2C",
"u. c #9B8A1D",
"i. c #C4AA2A",
"p. c #C2A72B",
"a. c #CCB525",
"s. c #D5B537",
"d. c #B2D50D",
"f. c #B3C716",
"g. c #C1DD0B",
"h. c #DBCB1A",
"j. c #D6C41E",
"k. c #D3D713",
"l. c #E1D216",
"z. c #E3D615",
"x. c #CEE80A",
"c. c #ECE40C",
"v. c #EFE80B",
"b. c #F3ED07",
"n. c #F6F206",
"m. c #FFFE01",
"M. c #FAF507",
"N. c #F0E218",
"B. c #E6CA2C",
"V. c #ECD428",
"C. c #E8C736",
"Z. c #F2D929",
"A. c #AB8246",
"S. c #BD9346",
"D. c #A9825E",
"F. c #B7925E",
"G. c #B48C52",
"H. c #948874",
"J. c #B38C67",
"K. c #B9946A",
"L. c #AF906F",
"P. c #ADA265",
"I. c #C89A4B",
"U. c #CB9B50",
"Y. c #D2A14E",
"T. c #DEAB53",
"R. c #D6A551",
"E. c #D2A844",
"W. c #E4B946",
"Q. c #E1AE54",
"!. c #E5B057",
"~. c #C19D6A",
"^. c #C69F70",
"/. c #CAA77D",
"(. c #C8A477",
"). c #C5A16D",
"_. c #A7E554",
"`. c #2C4E9B",
"'. c #32529A",
"]. c #31519A",
"[. c #4663A6",
"{. c #486786",
"}. c #7887AF",
"|. c #72B0B7",
" X c #57CD9F",
".X c #00A5E5",
"XX c #00BBFF",
"oX c #71B7C3",
"OX c #788FC1",
"+X c #8B8D86",
"@X c #AD9C81",
"#X c #8BAC85",
"$X c #BBA891",
"%X c #ADABB0",
"&X c #B4B2B1",
"*X c #CDAB83",
"=X c #C4A983",
"-X c #D6B58C",
";X c #D9B88F",
":X c #D8B488",
">X c #DCBC93",
",X c #D0B088",
"<X c #C6BAB8",
"1X c #ADCCB3",
"2X c #E3C59D",
"3X c #E2C494",
"4X c #E8CCA5",
"5X c #F0D4AC",
"6X c #F6DCB3",
"7X c #F7DDB4",
"8X c #EDD5AB",
"9X c #FEE6BD",
"0X c #FFE8BF",
"qX c #DFC098",
"wX c #B1BAD2",
"eX c #C0BFC0",
"rX c #BAC1D1",
"tX c #BBC7E1",
"yX c #FFEBC2",
"uX c #FFE9C5",
"iX c #FAEDD7",
"pX c #F9EDDA",
"aX c #FFFFFE",
"sX c #F9F7F4",
"dX c #F0EEEC",
"fX c #E3D8CA",
"gX c none",
/* pixels */
"gXgXgXgXgXgXgXgXgXgXgXgXgXgXgXgXgXgXgXgXgXgXgXgXgXgXgXgXgXgXgXgXgXgXgXgXgXgXgXgXgXgXgXgXgXgXgXgXgXgXgXgXgXgXgXgXgXgXgXgXgXgXgXgX",
"gXgXgXgXgXgXgXgXgXgXgXgXgXgXgXgXgXgXgXgXgXgXgXgXgXgXgXgXgXgXgXgXgXgXgXgXgXgXgXgXgXgXgXgXgXgXgXgXgXgXgXgXgXgXgXgXgXgXgXgXgXgXgXgX",
"gXgXgXgXgXgXgXgXgXgXgXgXgXgXgXgXgXgXgXgXgXgXgXgXgXgXgXgXgXgXgXgXgXgXgXgXgXgXgXgXgXgXgXgXgXgXgXgXgXgXgXgXgXgXgXgXgXgXgXgXgXgXgXgX",
"gXgXgXgXgXgXgXgXgXgXgXgXgXgXgXgXgXgXgXgXgXgXgXgXgXgXgXgXgXgXgXgXgXgXgXgXgXgXgXgXgXgXgXgXgXgXgXgXgXgXgXgXgXgXgXgXgXgXgXgXgXgXgXgX",
"gXgXgXgXgXgXgXgXgXgXgXgXgXgXgXgXgXgXgXgXgXgXgXgXgXgXgXgXgXgXgXgXgXgXgXgXgXgXgXgXgXgXgXgXgXgXgXgXgXgXgXgXgXgXgXgXgXgXgXgXgXgXgXgX",
"gXgXgXgXgXgXgXgXgXgXgXgXgXgXgXgXgXgXgXgXgXgXgXgXgXgXgXgXgXgXgXgXgXgXgXgXgXgXgXgXgXgXgXgXgXgXgXgXgXgXgXgXgXgXgXgXgXgXgXgXgXgXgXgX",
"gXgXgXgXgXgXgXgXgXgXgXgXgXgXgXgXgXgXgXgXgXgXgXgXgXgXgXgXgXgXgXgXgXgXgXgXgXgXgXgXgXgXgXgXgXgXgXgXgXgXgXgXgXgXgXgXgXgXgXgXgXgXgXgX",
"gXgXgXgXgXgXgXgXgXgXgXgXgXgXgXgXgXgXgXgXgXgX  X l b b b b b b c b b i     gXgXgXgXgXgXgXgXgXgXgXgXgXgXgXgXgXgXgXgXgXgXgXgXgXgXgX",
"gXgXgXgXgXgXgXgXgXgXgXgXgXgXgXgXgXgXgXgXgX    X l c c c c v b b c c i     gXgXgXgXgXgXgXgXgXgXgXgXgXgXgXgXgXgXgXgXgXgXgXgXgXgXgX",
"gXgXgXgXgXgXgXgXgXgXgXgXgXgXgXgXgXgXgXgXgX+ + , n @.@.@.@.@.@.@.@.@.z + + gXgXgXgXgXgXgXgXgXgXgXgXgXgXgXgXgXgXgXgXgXgXgXgXgXgXgX",
"gXgXgXgXgXgXgXgXgXgXgXgXgXgXgXgXgXgXgX    y c b *.-.-.1.=.1.-.=.1.1.&.v b >     gXgXgXgXgXgXgXgXgXgXgXgXgXgXgXgXgXgXgXgXgXgXgXgX",
"gXgXgXgXgXgXgXgXgXgXgXgXgXgXgXgXgXgXgX    i c #.*.1.1.1.1.1.1.1.1.1.&.b b >     gXgXgXgXgXgXgXgXgXgXgXgXgXgXgXgXgXgXgXgXgXgXgXgX",
"gXgXgXgXgXgXgXgXgXgXgXgXgXgXgXgX    > i i l b b $.$.$.$.$.@.$.$.$.$.@.c b z i y X   gXgXgXgXgXgXgXgXgXgXgXgXgXgXgXgXgXgXgXgXgXgX",
"gXgXgXgXgXgXgXgXgXgXgXgXgXgXgXgX    > c c c c b c c c c c c c c c c c c c c b v X     gXgXgXgXgXgXgXgXgXgXgXgXgXgXgXgXgXgXgXgXgX",
"gXgXgXgXgXgXgXgXgXgXgXgXgXgXgXgX, + u @.@.@.@.@.@.@.@.@.@.@.@.@.@.@.@.@.@.@.@.n > , + gXgXgXgXgXgXgXgXgXgXgXgXgXgXgXgXgXgXgXgXgX",
"gXgXgXgXgXgXgXgXgXgXgXgXgX    X l c $.1.1.1.1.-.1.1.-.1.1.1.1.1.1.-.1.1.1.1.1.*.b b y     gXgXgXgXgXgXgXgXgXgXgXgXgXgXgXgXgXgXgX",
"gXgXgXgXgXgXgXgXgXgXgXgXgX    X l b $.2.1.2.3.2.2.2.1.1.3.1.1.3.3.2.1.3.3.2.2.=.#.#.i     gXgXgXgXgXgXgXgXgXgXgXgXgXgXgXgXgXgXgX",
"gXgXgXgXgXgXgXgXgXgXgXgXgX    @ %.*.>.8.8.f.x.x.x.x.f.8.8.8.8.0.g.x.f.8.8.8.8.8.*.*.h     gXgXgXgXgXgXgXgXgXgXgXgXgXgXgXgXgXgXgX",
"gXgXgXgXgXgXgXgXgXgXgXgXgX    X =.1.,.X. .l.m.m.m.m.l. . . ...w.M.m.l. .......8.3.-.j     gXgXgXgXgXgXgXgXgXgXgXgXgXgXgXgXgXgXgX",
"gXgXgXgXgXgXgXgXgXgXgXgXgX, > < >.,.<.] ..l.m.m.z.l.j.p.p.w...w.n.m.z.p.i.w.} e.,.,.J > > + gXgXgXgXgXgXgXgXgXgXgXgXgXgXgXgXgXgX",
"gXgXgXgXgXgXgXgXgXgXgX    i c N ` ........l.m.n.w. .i.m.m.i. .w.n.m.m.m.m.p. . ...X.L c b >     gXgXgXgXgXgXgXgXgXgXgXgXgXgXgXgX",
"gXgXgXgXgXgXgXgXgXgXgX. . y b N 8...X.q.] l.m.b.w...i.m.m.i...t.b.m.m.M.m.i.' q...X.L b n > .   gXgXgXgXgXgXgXgXgXgXgXgXgXgXgXgX",
"gXgXgXgXgX....A.*X;XO.6 6 C S K U.Y.s.v.c.C.W.C.c.v.h.t.t.h.v.z.C.W.s.t.t.h.v.z.q...( C C 6 6 S =X-X^.....gXgXgXgXgXgXgXgXgXgXgX",
"gXgXgXgXgX....A.*X-XJ.0 0 0 r G Y.Q.C.m.m.C.T.Q.M.m.l. . .l.m.M.W.T.U. . .l.m.M.w. ._ D 0 0 8 G /.-X^.....gXgXgXgXgXgXgXgXgXgXgX",
"gXgXgXgXgX) ) _ >X4X,XD.D._ ~ / C.C.B.h.h.B.C.B.h.h.a... .l.m.M.E.I.I.F.J.a.h.h.i.a.y.~ ~ O.D.J.>X4X(.) ) gXgXgXgXgXgXgXgXgXgXgX",
"gXgXgXgXgX0 8 ^ 5XyX0X0X0X~. .w.b.m.l.'  .l.m.n.w... .....l.m.n.w.} F.:X-XF.} q.M.m.z.....3X0X0XuXyX,X0 D gXgXgXgXgXgXgXgXgXgXgX",
"gXgXgXgXgXD D ^ 4X6X7X9X9X~.] ] v.m.h.X.X.l.m.b.t.A.A.X.] l.n.c.w...K.:X;XF.' r.b.m.l. . .>X9X9X6X6X*XD D gXgXgXgXgXgXgXgXgXgXgX",
"gXgXgXgXgXgXgXgX^ ^ O.>X>X} D ~ w.r.t.R.Y.N.m.m.b.b.l.R.R.[ ! / (./.;X9X9X~.` q.E.W.E. .' (.>X:X{ ^ ^ gXgXgXgXgXgXgXgXgXgXgXgXgX",
"gXgXgXgXgXgXgXgXD 0 _ :X:X{ 0 r `  .S.T.T.N.m.m.m.m.N.Q.Q.) 0 G /.,X2X0X9X).' q.Q.Q.U.] ..(.;X/.F r e gXgXgXgXgXgXgXgXgXgXgXgXgX",
"gXgXgXgXgXgXgXgXgX0 E oX|.P.7.6./ ^ ] Q.Q.C.N.Z.j.j.i.] ] o.O.O.qX4X8X0X9X/.F.K.X.] t.a.a.#XoX|.H r gXgXgXgXgXgXgXgXgXgXgXgXgXgX",
"gXgXgXgXgXgXgXgXgXgXgXXXXX_.m.b.! 0 ) Q.Q.T.T.R.X...) r 0 J.;X>X9X0XuX0XuX2X:X*XF e 6.m.m. XXXXXgXgXgXgXgXgXgXgXgXgXgXgXgXgXgXgX",
"gXgXgXgXgXgXgXgXgXgXgX.X.X_.m.b.! G ) I.I.Y.R.Y...` _ F ~ K.>X>X7X7X7X8X8X,X(.K.F e 6.m.m. X.X.XgXgXgXgXgXgXgXgXgXgXgXgXgXgXgXgX",
"gXgXgXgXgXgXgXgXgXgXgX% % 7.m.n.e. .H O # H X.] F G { *X/.4X9X6XqX>X^.^ ^ 2 O - _ } p.m.m.P % % gXgXgXgXgXgXgXgXgXgXgXgXgXgXgXgX",
"gXgXgXgXgXgXgXgXgXgXgX    7.m.n.r.X.S   . S ..] D 0 { -X:X5X9X9X>X-XO.e r #   o _ ..p.m.m.B     gXgXgXgXgXgXgXgXgXgXgXgXgXgXgXgX",
"gXgXgXgXgXgXgXgXgXgXgX    u.Z.B./ ~ +.+X+XE W W G 8 } 4X4X7X0X5XD.o.+.R R E +X+X( ~ e.V.V.B     gXgXgXgXgXgXgXgXgXgXgXgXgXgXgXgX",
"gXgXgXgXgXgXgXgXgXgXgX    _ !.R.~ 0 H.aXaXOX].'.S 0 O.0X0X0X0X5X~ 8 T `.`.tXaXdX^ 0 _ T.Q.7     gXgXgXgXgXgXgXgXgXgXgXgXgXgXgXgX",
"gXgXgXgXgXgXgXgXgXgXgX    ( S.A.8 6 O.aXsX}.`.'.Q ^ J.9X9X9X0X5X+.) W ].].tXsXpXH 6 F S.S.7     gXgXgXgXgXgXgXgXgXgXgXgXgXgXgXgX",
"gXgXgXgXgXgXgXgXgXgXgXgXgXO o o .   T uXuX%X`.[.dXdXpX9X0X9X9XuXdXdXwX].`.&XuX4X- . o O o gXgXgXgXgXgXgXgXgXgXgXgXgXgXgXgXgXgXgX",
"gXgXgXgXgXgXgXgXgXgXgXgXgX          T 9XuX[.`.[.dXaXsX9X9X9X0XuXsXaXtX`.].&XuX4X&         gXgXgXgXgXgXgXgXgXgXgXgXgXgXgXgXgXgXgX",
"gXgXgXgXgXgXgXgXgXgXgXgXgXgXgXgX    Z ).(.$X%X%XiXiXiX9X9X9X0X0XiXpXfX%X%X$X(.L.$     gXgXgXgXgXgXgXgXgXgXgXgXgXgXgXgXgXgXgXgXgX",
"gXgXgXgXgXgXgXgXgXgXgXgXgXgXgXgX    5 ' ' 3XyX0X9X9X9X9X9X9XyX0X0X9X0X0XyX).' _ o     gXgXgXgXgXgXgXgXgXgXgXgXgXgXgXgXgXgXgXgXgX",
"gXgXgXgXgXgXgXgXgXgXgXgXgXgXgXgX+ + 3 _ _ /.2X2X6X6X6X6X6X6X6X6X6X6X8X2XqXF._ ( < @ @ gXgXgXgXgXgXgXgXgXgXgXgXgXgXgXgXgXgXgXgXgX",
"gXgXgXgXgXgXgXgXgXgXgXgXgX    X l x M D D G G ^ *X;X;X;X-X-X-X-X;X;XK.D G G V S n x y     gXgXgXgXgXgXgXgXgXgXgXgXgXgXgXgXgXgXgX",
"gXgXgXgXgXgXgXgXgXgXgXgXgX    X l c M 0 V V V F /.-X-X:X-X-X-X-X:X-XJ.V V V V S n #.i     gXgXgXgXgXgXgXgXgXgXgXgXgXgXgXgXgXgXgX",
"gXgXgXgXgXgXgXgXgXgXgX    U I Y 1X1XH.d d k M M 5.5.4.4.4.5.4.5.4.4.>.M M k d k 1X1X+X; ; O     gXgXgXgXgXgXgXgXgXgXgXgXgXgXgXgX",
"gXgXgXgXgXgXgXgXgXgXgX    U Y {.sXaX1Xt t l x #.x c x x x x c c x c c c x y < k dXaX<Xq q O     gXgXgXgXgXgXgXgXgXgXgXgXgXgXgXgX",
"gXgXgXgXgXgXgXgXgXgXo = # I Y R %XrX+Xd d m #.x c b b c b b b b c b c c x a d k %XrXH.7 7 ; # # gXgXgXgXgXgXgXgXgXgXgXgXgXgXgXgX",
"gXgXgXgXgXgXgXgX    = V V V D 9 o X = D V M c c b b c b b c b b b c b b x Z r 9 o   : D r D 8 9 o     gXgXgXgXgXgXgXgXgXgXgXgXgX",
"gXgXgXgXgXgXgXgX    - S D G D e .   * V V M #.b b b b b b b b n b b b b b P V 9 . . : r D D D S o     gXgXgXgXgXgXgXgXgXgXgXgXgX",
"gXgXgXgXgXgXgXgX    w K.K.,X>X=Xd > s >.:.J C C C C u.g.x.d.g.d.K C C C C J :.:.< < A qX>X/.K.D.$     gXgXgXgXgXgXgXgXgXgXgXgXgX",
"gXgXgXgXgXgXgXgX    A >X;X9XuX6Xk t h 2.2.K V V 0 9 6.n.m.m.m.n.! 0 0 r D >.-.=.s t 4.iXuX4X>X=X$     gXgXgXgXgXgXgXgXgXgXgXgXgX",
"gXgXgXgXgXgXgXgX    q | | H.@XH.< , a &.=.J K K Z Z ;.d.d.d.d.f.Z Z Z K K :.*.%.< , k @XL.H.| | $   gXgXgXgXgXgXgXgXgXgXgXgXgXgX",
"gXgXgXgXgXgXgXgXgXgXgX  X           > b b &.2.*.#.x b x b b b b b b $.1.1.$.c l X               gXgXgXgXgXgXgXgXgXgXgXgXgXgXgXgX",
"gXgXgXgXgXgXgXgXgXgXgX              > v c &.2.-.#.b #.b b b b #.#.b $.1.-.@.v l X               gXgXgXgXgXgXgXgXgXgXgXgXgXgXgXgX",
"gXgXgXgXgXgXgXgXgXgXgXgXgXgXgXgX    X + + z @.@.*.*.*.*.*.*.*.=.*.*.&.@.#.u + +       gXgXgXgXgXgXgXgXgXgXgXgXgXgXgXgXgXgXgXgXgX",
"gXgXgXgXgXgXgXgXgXgXgXgXgXgXgXgX          y b #.-.2.2.2.2.2.2.2.2.2.*.c #.>           gXgXgXgXgXgXgXgXgXgXgXgXgXgXgXgXgXgXgXgXgX",
"gXgXgXgXgXgXgXgXgXgXgXgXgXgXgXgX* : * # # < y y h h h j h j h j j j a y y & # # * : = gXgXgXgXgXgXgXgXgXgXgXgXgXgXgXgXgXgXgXgXgX",
"gXgXgXgXgXgXgXgXgXgXgXgXgX    o 9 D 9 q q O                               ; q w D D 5     gXgXgXgXgXgXgXgXgXgXgXgXgXgXgXgXgXgXgX",
"gXgXgXgXgXgXgXgXgXgXgXgXgX    . 9 D e q q =   .                         . ; q q V D 5     gXgXgXgXgXgXgXgXgXgXgXgXgXgXgXgXgXgXgX",
"gXgXgXgXgXgXgXgXgXgXgXgXgX    o 9 D 0 e e q 2 ; .     gXgXgXgXgX    O 5 2 6 e r V V 5     gXgXgXgXgXgXgXgXgXgXgXgXgXgXgXgXgXgXgX",
"gXgXgXgXgXgXgXgXgXgXgXgXgX    . 9 D D D r 6 q 5 .     gXgXgXgXgX    # q q e D D D D 5     gXgXgXgXgXgXgXgXgXgXgXgXgXgXgXgXgXgXgX",
"gXgXgXgXgXgXgXgXgXgXgXgXgXgX  . 1 1 1 1 2 - - -     gXgXgXgXgXgXgX  O - - ; 1 5 1 1 :     gXgXgXgXgXgXgXgXgXgXgXgXgXgXgXgXgXgXgX",
"gXgXgXgXgXgXgXgXgXgXgXgXgXgXgXgX                gXgXgXgXgXgXgXgXgXgXgX                gXgXgXgXgXgXgXgXgXgXgXgXgXgXgXgXgXgXgXgXgX",
"gXgXgXgXgXgXgXgXgXgXgXgXgXgXgXgX                gXgXgXgXgXgXgXgXgXgXgX                gXgXgXgXgXgXgXgXgXgXgXgXgXgXgXgXgXgXgXgXgX"
};
