/* XPM */
static char *result[] = {
/* columns rows colors chars-per-pixel */
"32 32 17 1 ",
"  c black",
". c #3F1500",
"X c #003304",
"o c #7F3500",
"O c #005907",
"+ c #007F0A",
"@ c #0F424C",
"# c #196E7F",
"$ c #A55200",
"% c #B25435",
"& c #FF7632",
"* c #D86641",
"= c #47B262",
"- c #D8906C",
"; c #FFAA7F",
": c white",
"> c None",
/* pixels */
">>>>>>>>>>>>>>>>>>>>>>>>>>>>>>>>",
">>>>>>>>>>>>>>>>>>>>>>>>>>>>>>>>",
">>>>>>>>>>>>>>>>>>>>>>>>>>>>>>>>",
">>>>>>>>>>>>>>>>>>>>>>>>>>>>>>>>",
">>>>>>>>>>>>>>>>>>>>>>>>>>>>>>>>",
">>>>>>>>>>>>>>>>>>>>>>>>>>>>>>>>",
">>>>>>>>>>>>>>>>>>>>>>>>>>>>>>>>",
">>>>>>>>>>>>>>>>>>ooo>>>>>>>>>>>",
">>>>>>>>>>>>>>oooo$$$o>>>>>>>>>>",
">>>>>>>>>>>>oo$$$oo$$$o>>>>>>>>>",
">>>>>>>>>>>o$$oooooo$$$o>>>>>>>>",
">>>>>>>>>>o$ooooooooo$$o>>>>>>>>",
">>>>>>>>>>.ooooooo...oo>>>>>>>>>",
">>>>>>>>>.ooooo...--%>>>>>>>>>>>",
">>>>>>>>>.oooo.-:::-::>>>>>>>>>>",
">>>>>>>>>.o..o.-:  ; :>>>>>>>>>>",
">>>>>>>>>..%.o.;:  ; :*>>>>>>>>>",
">>>>>>>>>>%-%..;:::;::;*>>>>>>>>",
">>>>>>>>>>%-%--;;;;;;;;*>>>>>>>>",
">>>>>>>>>>>%--;;;&&&&**>>>>>>>>>",
">>>>>>>>>>>>%%;;;;;;*>>>>>>>>>>>",
">>>>>>>>>>>XOO******OX>>>>>>>>>>",
">>>>>>>>>>XOOOOX====OOX>>>>>>>>>",
">>>>>>>>>>XOOOX+++++OOX>>>>>>>>>",
">>>>>>>>>>XOOOX=====OOX>>>>>>>>>",
">>>>>>>>>>*;;;;*++++OX*>>>>>>>>>",
">>>>>>>>>>*;;;;*OOOO@;*>>>>>>>>>",
">>>>>>>>>>>*;;;*####@*>>>>>>>>>>",
">>>>>>>>>>>>***@@@##@>>>>>>>>>>>",
">>>>>>>>>>>>.oo.>.oo.>>>>>>>>>>>",
">>>>>>>>>>>.ooo.>.ooo.>>>>>>>>>>",
">>>>>>>>>>>.....>.....>>>>>>>>>>"
};
