/* XPM */
static char *result[] = {
/* columns rows colors chars-per-pixel */
"32 32 10 1 ",
"  c #94755E",
". c #856955",
"X c #645149",
"o c #A1826B",
"O c #765E4B",
"+ c #B49B89",
"@ c #D4B78C",
"# c #B59D8B",
"$ c #3D2F2A",
"% c white",
/* pixels */
"         .Xo      ooooOOo     . ",
"        .Xo      ooXOOOo     o.+",
"oo     oo.o@   #oXO   O$#   ooO+",
"..@ ooooO$.o   #X     X$.@#oOOOO",
"OO.#.o OX$X.oo#X       X$.oOX.XX",
"$XO.XXOX  OO..oOo        $XX  .X",
"  X$  X    XX$Xoo      oOX      ",
"      Oo   oX$$oo      oX.      ",
"     Ooo  oo.XX.ooo   #OX       ",
" o   Xo@ooo..X$X..@#oo.X        ",
"oOoooX..o...X$$$.X....OO.o    o+",
"O XooXXX.XXXO$XOXXXXXXO.Oo   ooO",
"   XO$ $$$   XXX..OXO.. Oo   o.X",
"   OOX      oXX.  ...   O#@ oo.X",
"    Xoo     oXO        oXO#ooo.X",
"    Xo     ooXo#       ooXOoo.OX",
"o   Xooo   o.Ooo@@#o oooOOO.OO$$",
".@  X.#oo o.$$O...ooo...$$XXXXO$",
"X.#o$X.#oo.$$XXXX....X$$XXOOX$  ",
"OX.#.$X...X$XX. XXXXXXOXX.      ",
" OXOXOo     X..        OX.      ",
"  O OXOo    .Oo         O.o     ",
"     O @#o   Oo         O.o     ",
"oo oX$OO.#o  Oo         Ooo#oooo",
".ooXOX$XOOo  Xo         oO    o.",
"..oO.OXXXOo  .#@        o.OOOO.X",
"XX$O    OXoo oOo#ooo    oOXO   X",
"$$X       X ooXOoOOOoo oX$     O",
"O        OX o X$OXXXO ooX      O",
"X        XO  .O$$OX$XOOO.       ",
"         XO.OXOXO O XX$$.      X",
"         XO$X X       XO     oO "
};
